<svg xmlns="http://www.w3.org/2000/svg" viewBox="0 0 32 32">
  <circle cx="16" cy="16" r="15" fill="#FF6B00"/>
  <path d="M16 3a13 13 0 1 0 0 26 13 13 0 0 0 0-26zm0 2c2.5 0 4.8.8 6.7 2.2C20.5 9.5 18.3 11 16 11s-4.5-1.5-6.7-3.8A11 11 0 0 1 16 5zm-11 11a11 11 0 0 1 2.2-6.7C9.5 11.5 11 13.7 11 16s-1.5 4.5-3.8 6.7A11 11 0 0 1 5 16zm11 11c-2.5 0-4.8-.8-6.7-2.2C11.5 22.5 13.7 21 16 21s4.5 1.5 6.7 3.8A11 11 0 0 1 16 27zm11-11c0 2.5-.8 4.8-2.2 6.7-2.2-2.2-3.8-4.4-3.8-6.7s1.5-4.5 3.8-6.7A11 11 0 0 1 27 16z" fill="#531E00" opacity="0.3"/>
  <text x="16" y="21" font-family="Arial" font-size="14" font-weight="bold" fill="white" text-anchor="middle">🏀</text>
</svg>
